<svg xmlns="http://www.w3.org/2000/svg" version="1.1" xmlns:xlink="http://www.w3.org/1999/xlink" xmlns:svgjs="http://svgjs.dev/svgjs" width="2000" height="595" viewBox="0 0 2000 595"><g transform="matrix(1,0,0,1,-1.5575428168637018,-0.7075270589641036)"><svg viewBox="0 0 396 118" data-background-color="#ffffff" preserveAspectRatio="xMidYMid meet" height="595" width="2000" xmlns="http://www.w3.org/2000/svg" xmlns:xlink="http://www.w3.org/1999/xlink"><g id="tight-bounds" transform="matrix(1,0,0,1,0.3083934777390027,0.1403162906853197)"><svg viewBox="0 0 395.52 117.71936741862936" height="117.71936741862936" width="395.52"><g><svg viewBox="0 0 569.2598758664584 169.4298960452239" height="117.71936741862936" width="395.52"><g transform="matrix(1,0,0,1,173.73987586645845,0)"><svg viewBox="0 0 395.52 169.4298960452239" height="169.4298960452239" width="395.52"><g id="textblocktransform"><svg viewBox="0 0 395.52 169.4298960452239" height="169.4298960452239" width="395.52" id="textblock"><g><svg viewBox="0 0 395.52 126.84397021107111" height="126.84397021107111" width="395.52"><path d="M394.594 27.206C392.735 14.039 387.435 10.379 387.435 10.379 371.165-3.182 350.86-0.259 332.619 1.689 300.414 1.768 268.339 4.665 236.208 6.218 168.767 6.455 100.749 2.558 33.643 12.17 27.339 15.119-6.54 12.749 1.121 28.891 3.129 35.606 10.456 43.058 10.232 49.22 11.236 50.299 12.631 47.824 13.226 49.378 15.309 53.565 18.711 51.59 21.501 54.065 17.614 60.674 20.403 66.178 23.062 71.945 18.377 73.446 12.371 72.735 9.675 77.712 9.396 81.319 7.89 80.635 6.235 80.477 5.026 80.371 2.59 80.766 2.999 81.899 4.394 85.77-1.594 88.008 2.162 91.8-0.422 95.908 3.948 99.463 3.353 103.913 3.278 104.808 3.687 105.572 4.338 105.782 7.22 106.915 3.018 109.127 3.464 111.523 33.029 127.902 65.104 116.579 95.394 124.11 103.259 118.843 97.346 125.98 100.489 124.874 102.943 123.583 104.728 128.929 107.499 125.901 107.927 125.032 107.276 122.978 108.8 123.373 109.6 123.583 110.307 123.531 110.418 122.319 110.586 120.502 109.117 121.635 108.726 120.687 112.947 115.894 111.906 127.296 115.866 126.822 115.68 125.427 114.528 123.425 116.889 123.689 119.232 121.687 119.306 120.028 121.389 124.531 121.463 125.506 121.835 126.19 122.43 126.664 128.938 121.766 135.409 128.402 142.233 126.19 146.417 123.768 150.433 127.507 154.672 126.585 156.16 125.848 157.666 124.531 159.098 126.743 176.632 127.217 195.319 125.242 211.943 126.822 256.364 123.873 303.836 128.034 350.674 124.136 361.719 122.635 373.192 120.502 383.958 118.791 383.958 118.791 392.679 114.104 392.679 93.037S394.538 74.604 394.817 57.831C395.096 41.057 396.398 40.372 394.538 27.206Z" opacity="1" fill="#336a86" data-fill-palette-color="tertiary"></path><g transform="matrix(1,0,0,1,55.76832,26.068561146666667)"><svg width="283.98335999999995" viewBox="0.83 -33.94 170.92999999999998 44.97999999999998" height="74.70684791773778" data-palette-color="#ffffff"><path d="M13.13-21.29L13.13-21.29Q17.82-21.29 20.46-18.14 23.1-14.99 23.1-11.43L23.1-11.43Q23.1-6.74 19.82-3.17 16.55 0.39 12.4 0.39L12.4 0.39Q11.67 0.39 11.11 0.34 10.55 0.29 10.11 0.17 9.67 0.05 9.42-0.05 9.18-0.15 8.79-0.32 8.4-0.49 8.3-0.54L8.3-0.54Q8.11-0.29 8.11 0.1L8.11 0.1 8.11 4.3Q8.11 7.13 8.5 8.64L8.5 8.64Q8.59 8.98 9.77 9.3 10.94 9.62 11.43 9.62L11.43 9.62Q11.57 9.62 11.62 10.23 11.67 10.84 11.57 11.04L11.57 11.04Q6.69 10.79 6.35 10.79L6.35 10.79Q6.05 10.79 1.03 11.04L1.03 11.04Q0.83 10.84 0.83 10.23 0.83 9.62 1.03 9.62L1.03 9.62Q1.61 9.62 2.76 9.3 3.91 8.98 4 8.64L4 8.64Q4.35 7.23 4.35 5.22L4.35 5.22 4.35-14.94Q4.35-16.85 3.66-17.58L3.66-17.58Q3.17-18.16 2.47-18.38 1.76-18.6 1.29-18.6 0.83-18.6 0.83-18.7L0.83-18.7Q0.83-19.87 1.12-19.92L1.12-19.92Q6.3-20.7 7.86-21.19L7.86-21.19Q7.91-21.19 8.01-21.22 8.11-21.24 8.11-21.24L8.11-21.24Q8.25-21.24 8.25-20.97 8.25-20.7 8.2-20.31 8.15-19.92 8.15-19.87L8.15-19.87 8.15-19.58Q8.84-20.07 10.42-20.68 12.01-21.29 13.13-21.29ZM11.57-18.9L11.57-18.9Q10.06-18.9 9.08-18.09 8.11-17.29 8.11-15.77L8.11-15.77 8.11-4.79Q8.11-3.47 9.52-2.56 10.94-1.66 12.6-1.66L12.6-1.66Q15.48-1.66 17.19-4.25 18.9-6.84 18.9-10.06L18.9-10.06Q18.9-14.16 16.72-16.53 14.55-18.9 11.57-18.9ZM36.81-19.43L36.81-19.43Q34.23-19.43 32.59-17.07 30.95-14.7 30.95-11.28L30.95-11.28Q30.95-7.28 33.03-4.42 35.1-1.56 37.89-1.56L37.89-1.56Q40.48-1.56 42.14-4 43.8-6.45 43.8-9.86L43.8-9.86Q43.8-13.82 41.7-16.63 39.6-19.43 36.81-19.43ZM37.35-21.34L37.35-21.34Q41.75-21.34 44.87-18.16 48-14.99 48-10.55L48-10.55Q48-6.05 44.94-2.86 41.89 0.34 37.45 0.34 33.01 0.34 29.88-2.86 26.76-6.05 26.76-10.55L26.76-10.55Q26.76-15.09 29.78-18.21 32.81-21.34 37.35-21.34ZM64.16-21.34L64.16-21.34Q67.04-21.34 67.96-19.92L67.96-19.92Q67.96-18.21 67.43-17.43 66.89-16.65 66.11-16.65L66.11-16.65Q65.23-16.65 64.5-17.48 63.76-18.31 62.5-18.31L62.5-18.31Q60.98-18.31 59.86-16.89 58.74-15.48 58.74-13.92L58.74-13.92 58.74-6.59Q58.74-3.76 59.13-2.25L59.13-2.25Q59.22-1.9 60.42-1.59 61.62-1.27 62.1-1.27L62.1-1.27Q62.25-1.27 62.3-0.68 62.35-0.1 62.25 0.15L62.25 0.15Q57.37-0.1 56.98-0.1L56.98-0.1Q56.68-0.1 51.66 0.15L51.66 0.15Q51.46-0.05 51.46-0.66 51.46-1.27 51.66-1.27L51.66-1.27Q52.24-1.27 53.39-1.59 54.54-1.9 54.63-2.25L54.63-2.25Q54.98-3.66 54.98-5.66L54.98-5.66 54.98-14.89Q54.98-16.8 54.29-17.53L54.29-17.53Q53.8-18.12 53.1-18.33 52.39-18.55 51.92-18.55 51.46-18.55 51.46-18.65L51.46-18.65Q51.46-19.82 51.75-19.87L51.75-19.87Q56.93-20.65 58.49-21.14L58.49-21.14Q58.54-21.14 58.64-21.17 58.74-21.19 58.74-21.19L58.74-21.19Q58.93-21.19 58.98-20.78 59.03-20.36 58.98-20.17L58.98-20.17 58.69-17.72Q59.57-19.04 61.1-20.19 62.64-21.34 64.16-21.34ZM72.31-5.86L72.31-18.26 69.47-18.26Q69.23-18.26 69.23-19.29L69.23-19.29Q69.23-19.58 69.28-19.63L69.28-19.63Q70.7-20.26 72.36-22.22L72.36-22.22Q72.89-22.85 73.41-23.66 73.92-24.46 74.26-25.05 74.6-25.63 74.6-25.68L74.6-25.68Q76.07-25.68 76.07-25.44L76.07-25.44 76.07-20.61Q77.34-20.61 79.92-20.58 82.51-20.56 82.66-20.56L82.66-20.56Q83.05-20.56 83.05-20.12L83.05-20.12Q83.05-19.24 82.56-18.26L82.56-18.26 76.07-18.26 76.07-6.3Q76.07-4.35 77.07-3.17 78.07-2 79.68-2L79.68-2Q81.14-2 82.71-2.93L82.71-2.93Q82.85-3.03 83.15-2.51 83.44-2 83.39-1.95L83.39-1.95Q82.66-1.17 81.14-0.42 79.63 0.34 78.02 0.34L78.02 0.34Q75.58 0.34 73.94-1.27 72.31-2.88 72.31-5.86L72.31-5.86ZM98.23-33.94L98.23-33.94Q101.75-33.94 102.87-32.03L102.87-32.03Q102.87-28.96 101.11-28.96L101.11-28.96Q100.48-28.96 99.89-29.71 99.31-30.47 98.55-31.25 97.79-32.03 96.72-32.03L96.72-32.03Q94.57-32.03 93.4-29.39 92.23-26.76 92.23-23.19L92.23-23.19 92.23-20.7Q92.23-20.46 92.47-20.46L92.47-20.46 97.89-20.46Q98.13-20.46 98.13-20.12L98.13-20.12Q98.13-19.34 97.55-18.16L97.55-18.16 92.52-18.16Q92.23-18.16 92.23-17.87L92.23-17.87 92.23-6.59Q92.23-3.96 92.67-2.25L92.67-2.25Q92.76-1.9 93.86-1.59 94.96-1.27 95.4-1.27L95.4-1.27Q95.55-1.27 95.6-0.68 95.64-0.1 95.55 0.15L95.55 0.15Q90.66-0.1 90.32-0.1L90.32-0.1Q90.18-0.1 85.2 0.15L85.2 0.15Q85.1 0.05 85.05-0.32 85-0.68 85.05-0.98 85.1-1.27 85.2-1.27L85.2-1.27Q85.78-1.27 86.86-1.59 87.93-1.9 88.03-2.25L88.03-2.25Q88.52-4.15 88.52-6.59L88.52-6.59 88.52-17.82Q88.52-18.16 88.27-18.16L88.27-18.16 85.68-18.16Q85.54-18.16 85.54-18.46L85.54-18.46Q85.54-18.9 86.32-19.68 87.1-20.46 87.98-20.46L87.98-20.46 88.27-20.46Q88.52-20.46 88.52-20.75L88.52-20.75 88.52-21.39Q88.52-26.51 91.57-30.22 94.62-33.94 98.23-33.94ZM110.29-19.43L110.29-19.43Q107.7-19.43 106.07-17.07 104.43-14.7 104.43-11.28L104.43-11.28Q104.43-7.28 106.51-4.42 108.58-1.56 111.36-1.56L111.36-1.56Q113.95-1.56 115.61-4 117.27-6.45 117.27-9.86L117.27-9.86Q117.27-13.82 115.17-16.63 113.07-19.43 110.29-19.43ZM110.83-21.34L110.83-21.34Q115.22-21.34 118.35-18.16 121.47-14.99 121.47-10.55L121.47-10.55Q121.47-6.05 118.42-2.86 115.37 0.34 110.93 0.34 106.48 0.34 103.36-2.86 100.23-6.05 100.23-10.55L100.23-10.55Q100.23-15.09 103.26-18.21 106.29-21.34 110.83-21.34ZM127.57-5.66L127.57-5.66 127.57-26.81Q127.57-28.47 127.28-29.93L127.28-29.93Q127.04-30.71 124.79-30.71L124.79-30.71 124.35-30.71Q124.06-30.71 124.06-31.25L124.06-31.25Q124.06-32.03 124.35-32.03L124.35-32.03Q125.82-32.18 127.06-32.42 128.31-32.67 129.01-32.91 129.72-33.15 130.21-33.37 130.7-33.59 130.94-33.74L130.94-33.74 131.14-33.89 131.24-33.89Q131.43-33.89 131.63-33.62 131.82-33.35 131.87-33.11L131.87-33.11Q131.33-31.54 131.33-28.86L131.33-28.86 131.33-6.59Q131.33-3.76 131.72-2.25L131.72-2.25Q131.82-1.9 132.99-1.59 134.16-1.27 134.65-1.27L134.65-1.27Q134.8-1.27 134.85-0.68 134.9-0.1 134.8 0.15L134.8 0.15Q129.92-0.1 129.57-0.1L129.57-0.1Q129.28-0.1 124.25 0.15L124.25 0.15Q124.06-0.05 124.06-0.66 124.06-1.27 124.25-1.27L124.25-1.27Q124.84-1.27 125.99-1.59 127.13-1.9 127.23-2.25L127.23-2.25Q127.57-3.66 127.57-5.66ZM140.44-27.22Q139.73-27.93 139.73-28.96 139.73-29.98 140.44-30.69 141.14-31.4 142.17-31.4 143.2-31.4 143.9-30.69 144.61-29.98 144.61-28.96 144.61-27.93 143.9-27.22 143.2-26.51 142.17-26.51 141.14-26.51 140.44-27.22ZM144.42-16.65L144.42-6.59Q144.42-3.76 144.81-2.25L144.81-2.25Q144.9-1.9 146.08-1.59 147.25-1.27 147.74-1.27L147.74-1.27Q147.88-1.27 147.93-0.68 147.98-0.1 147.88 0.15L147.88 0.15Q143-0.1 142.66-0.1 142.32-0.1 137.34 0.15L137.34 0.15Q137.14-0.05 137.14-0.66 137.14-1.27 137.34-1.27L137.34-1.27Q137.92-1.27 139.07-1.59 140.22-1.9 140.31-2.25L140.31-2.25Q140.66-3.66 140.66-5.66L140.66-5.66 140.66-14.89Q140.66-16.8 139.97-17.53L139.97-17.53Q139.48-18.12 138.78-18.33 138.07-18.55 137.6-18.55 137.14-18.55 137.14-18.65L137.14-18.65Q137.14-19.82 137.43-19.87L137.43-19.87Q142.61-20.65 144.17-21.14L144.17-21.14 144.27-21.19Q144.37-21.19 144.42-21.19L144.42-21.19Q144.61-21.19 144.66-20.78 144.71-20.36 144.66-20.17L144.66-20.17Q144.42-18.21 144.42-16.65L144.42-16.65ZM160.58-19.43L160.58-19.43Q157.99-19.43 156.35-17.07 154.72-14.7 154.72-11.28L154.72-11.28Q154.72-7.28 156.79-4.42 158.87-1.56 161.65-1.56L161.65-1.56Q164.24-1.56 165.9-4 167.56-6.45 167.56-9.86L167.56-9.86Q167.56-13.82 165.46-16.63 163.36-19.43 160.58-19.43ZM161.11-21.34L161.11-21.34Q165.51-21.34 168.63-18.16 171.76-14.99 171.76-10.55L171.76-10.55Q171.76-6.05 168.71-2.86 165.65 0.34 161.21 0.34 156.77 0.34 153.64-2.86 150.52-6.05 150.52-10.55L150.52-10.55Q150.52-15.09 153.54-18.21 156.57-21.34 161.11-21.34Z" opacity="1" transform="matrix(1,0,0,1,0,0)" fill="#ffffff" class="wordmark-text-0" data-fill-palette-color="quaternary" id="text-0"></path></svg></g></svg></g><g transform="matrix(1,0,0,1,75.54431999999998,144.48046404009898)"><svg viewBox="0 0 244.43136 24.94943200512492" height="24.94943200512492" width="244.43136"><g transform="matrix(1,0,0,1,0,0)"><svg width="244.43136" viewBox="1.45 -34 468.25 47.8" height="24.94943200512492" data-palette-color="#8eaec4"><path d="M8.5 0.65L8.5 0.65Q6.65 0.65 5.05 0.1 3.45-0.45 2.45-1.45 1.45-2.45 1.45-3.85L1.45-3.85Q1.45-4.6 1.83-5.28 2.2-5.95 3.05-5.95L3.05-5.95Q3.5-5.95 4-5.7L4-5.7Q4.9-5.2 6.3-4.78 7.7-4.35 9.25-4.35L9.25-4.35Q11-4.35 12.35-4.85 13.7-5.35 13.7-6.25L13.7-6.25Q13.7-6.95 12.68-7.25 11.65-7.55 9.25-7.9L9.25-7.9Q7.6-8.2 6.05-8.6 4.5-9 3.5-9.98 2.5-10.95 2.5-12.85L2.5-12.85Q2.5-14.7 3.53-16.43 4.55-18.15 6.6-19.3 8.65-20.45 11.6-20.45L11.6-20.45Q13.15-20.45 14.6-20.1 16.05-19.75 17-19.05 17.95-18.35 17.95-17.3L17.95-17.3Q17.95-16.4 17.32-15.65 16.7-14.9 15.88-14.43 15.05-13.95 14.5-13.95L14.5-13.95Q14.1-13.95 13.55-14.5L13.55-14.5Q12.7-15.2 11.68-15.48 10.65-15.75 9.65-15.75L9.65-15.75Q8.15-15.75 7.23-15.3 6.3-14.85 6.3-14.15L6.3-14.15Q6.3-13.5 7.08-13.1 7.85-12.7 9-12.53 10.15-12.35 11.2-12.2L11.2-12.2Q14.1-11.8 15.8-10.83 17.5-9.85 17.5-7.4L17.5-7.4Q17.5-5.5 16.43-3.63 15.35-1.75 13.33-0.55 11.3 0.65 8.5 0.65ZM29.7 0.65L29.7 0.65Q26.25 0.65 24.17-1.23 22.1-3.1 22.1-6.75L22.1-6.75Q22.1-8.45 22.57-10.05 23.05-11.65 23.85-13.05L23.85-13.05Q23.05-12.55 22.65-12.55L22.65-12.55Q22.05-12.55 21.82-13.23 21.6-13.9 21.6-14.55L21.6-14.55Q21.6-15.7 22.07-16.38 22.55-17.05 23-17.4L23-17.4Q24.05-18.3 26.3-19.38 28.55-20.45 31.7-20.45L31.7-20.45Q36-20.45 38.37-18.05 40.75-15.65 40.75-11.35L40.75-11.35Q40.75-8 39.35-5.28 37.95-2.55 35.47-0.95 33 0.65 29.7 0.65ZM31.25-4.45L31.25-4.45Q33.75-4.45 35.47-6.03 37.2-7.6 37.2-10.2L37.2-10.2Q37.2-12.9 35.45-14.05 33.7-15.2 31.4-15.2L31.4-15.2Q30.35-15.2 29.5-15 28.65-14.8 27.9-14.5L27.9-14.5Q27.2-13.5 26.65-12.25 26.1-11 26.1-9.5L26.1-9.5Q26.1-7 27.6-5.73 29.1-4.45 31.25-4.45ZM50.85 0.65L50.85 0.65Q48.35 0.65 46.97-0.8 45.6-2.25 45.6-5L45.6-5Q45.6-6.95 46.15-9L46.15-9Q46.4-9.85 46.55-10.7 46.7-11.55 46.7-12.4L46.7-12.4Q46.7-14.6 45.35-15.25L45.35-15.25Q44.05-15.95 44.05-16.75L44.05-16.75Q44.05-17.55 44.72-18.35 45.4-19.15 46.4-19.68 47.4-20.2 48.4-20.2L48.4-20.2Q51.25-20.2 51.25-15.55L51.25-15.55Q51.25-14.05 51.02-12.78 50.8-11.5 50.5-10.35L50.5-10.35Q50.3-9.55 50.17-8.75 50.05-7.95 50.05-7.35L50.05-7.35Q50.05-4.85 52.5-4.85L52.5-4.85Q54.8-4.85 56.8-7.3 58.8-9.75 60.1-14.15L60.1-14.15 60.05-15.1Q59.95-17.6 60.92-18.9 61.9-20.2 63.8-20.2L63.8-20.2Q65.45-20.2 65.45-19.15L65.45-19.15Q65.45-18.8 65.32-18.25 65.2-17.7 64.95-16.95L64.95-16.95Q64.45-15.1 64.1-13.03 63.75-10.95 63.75-9.2L63.75-9.2Q63.75-7.25 64.35-5.98 64.95-4.7 66.6-4.25L66.6-4.25Q67.05-4.2 67.32-3.98 67.6-3.75 67.6-3.05L67.6-3.05Q67.6-1.85 66.6-0.7 65.6 0.45 63.7 0.45L63.7 0.45Q60.05 0.45 60.05-4.7L60.05-4.7Q60.05-5.6 60.2-7.4L60.2-7.4 60.1-7.45Q56.95 0.65 50.85 0.65ZM73.24 0.55L73.24 0.55Q71.44 0.55 71.64-0.65L71.64-0.65Q72.19-2.8 72.57-5.03 72.94-7.25 72.94-9.3L72.94-9.3Q72.94-11.95 72.62-13.18 72.29-14.4 71.74-14.88 71.19-15.35 70.39-15.6L70.39-15.6Q70.04-15.75 69.77-16 69.49-16.25 69.49-16.7L69.49-16.7Q69.49-17.4 70.04-18.25 70.59-19.1 71.62-19.73 72.64-20.35 73.94-20.35L73.94-20.35Q75.64-20.35 76.29-19.18 76.94-18 76.94-16.1L76.94-16.1Q76.94-14.85 76.69-13.3 76.44-11.75 76.19-10.5L76.19-10.5 76.29-10.45Q77.09-13.1 78.27-15.35 79.44-17.6 81.12-19 82.79-20.4 84.99-20.4L84.99-20.4Q87.24-20.4 88.54-18.88 89.84-17.35 89.84-14.4L89.84-14.4 89.84-13.3Q91.29-16.35 93.37-18.4 95.44-20.45 98.39-20.45L98.39-20.45Q100.79-20.45 102.14-18.85 103.49-17.25 103.49-14.85L103.49-14.85Q103.49-13.9 103.29-13.03 103.09-12.15 102.84-11.3L102.84-11.3Q102.64-10.5 102.44-9.65 102.24-8.8 102.24-7.95L102.24-7.95Q102.24-4.95 104.79-4.05L104.79-4.05Q105.14-3.9 105.34-3.73 105.54-3.55 105.54-3.1L105.54-3.1Q105.54-2.65 105.27-1.8 104.99-0.95 104.19-0.23 103.39 0.5 101.89 0.5L101.89 0.5Q99.94 0.5 98.89-0.93 97.84-2.35 97.84-4.55L97.84-4.55Q97.84-5.65 98.04-6.85 98.24-8.05 98.54-9.15L98.54-9.15Q98.79-10.15 98.97-11.05 99.14-11.95 99.14-12.6L99.14-12.6Q99.14-13.8 98.57-14.35 97.99-14.9 97.04-14.9L97.04-14.9Q95.44-14.9 94.17-13.9 92.89-12.9 91.92-11.3 90.94-9.7 90.24-7.8L90.24-7.8Q90.29-7.35 90.32-6.63 90.34-5.9 90.34-5.35L90.34-5.35Q90.34-4.4 90.22-3.35 90.09-2.3 89.74-1.6L89.74-1.6Q89.34-0.65 88.57-0.05 87.79 0.55 86.49 0.55L86.49 0.55Q85.94 0.55 85.44 0.33 84.94 0.1 84.94-0.4L84.94-0.4Q84.94-0.6 85.24-2.18 85.54-3.75 85.84-6.05 86.14-8.35 86.14-10.55L86.14-10.55Q86.14-12.95 85.64-13.88 85.14-14.8 84.14-14.8L84.14-14.8Q82.89-14.8 81.77-13.75 80.64-12.7 79.72-11.05 78.79-9.4 78.12-7.6 77.44-5.8 77.04-4.25L77.04-4.25 77.04-3.7Q77.04-1.85 76.02-0.65 74.99 0.55 73.24 0.55ZM110.14 13.8L110.14 13.8Q108.09 13.8 106.62 12.7 105.14 11.6 105.14 9.75L105.14 9.75Q105.14 8.3 106.02 7.28 106.89 6.25 108.19 6.25L108.19 6.25Q108.79 6.25 109.04 6.45 109.29 6.65 109.44 6.9L109.44 6.9Q109.84 7.55 110.37 8.03 110.89 8.5 111.79 8.5L111.79 8.5Q112.99 8.5 114.12 7.65 115.24 6.8 116.19 5.7L116.19 5.7Q117.04 4.75 118.24 2.98 119.44 1.2 120.64-1.05L120.64-1.05Q119.54-0.1 118.59 0.33 117.64 0.75 116.79 0.75L116.79 0.75Q115.74 0.75 114.74-0.03 113.74-0.8 113.49-2.95L113.49-2.95Q113.34-4.6 112.92-6.6 112.49-8.6 111.87-10.48 111.24-12.35 110.34-13.65L110.34-13.65Q109.99-14.25 109.54-14.55 109.09-14.85 108.24-14.95L108.24-14.95Q107.64-15 107.47-15.3 107.29-15.6 107.29-16.25L107.29-16.25Q107.29-18.05 108.29-19.15 109.29-20.25 110.99-20.25L110.99-20.25Q113.04-20.25 113.94-18.68 114.84-17.1 115.49-14.85L115.49-14.85Q115.74-13.95 116.02-12.48 116.29-11 116.52-9.3 116.74-7.6 116.84-6.05L116.84-6.05Q116.89-4.95 118.09-4.95L118.09-4.95Q119.69-4.95 121.14-5.95 122.59-6.95 123.52-8.55 124.44-10.15 124.44-11.9L124.44-11.9Q124.44-12.9 124.19-13.7 123.94-14.5 123.34-15.1L123.34-15.1Q122.84-15.7 122.54-16.07 122.24-16.45 122.24-16.95L122.24-16.95Q122.24-17.8 123.04-18.55 123.84-19.3 124.97-19.8 126.09-20.3 126.94-20.3L126.94-20.3Q128.44-20.3 128.94-18.88 129.44-17.45 129.19-15.75L129.19-15.75Q128.89-13.4 127.99-10.2 127.09-7 125.67-3.5 124.24 0 122.42 3.28 120.59 6.55 118.54 9L118.54 9Q116.79 11.15 114.64 12.48 112.49 13.8 110.14 13.8ZM138.84 0.65L138.84 0.65Q135.84 0.65 134.01-1.23 132.19-3.1 132.19-6.6L132.19-6.6Q132.19-9.1 133.16-11.58 134.14-14.05 135.99-16.05 137.84-18.05 140.44-19.25 143.04-20.45 146.29-20.45L146.29-20.45Q149.29-20.45 151.41-19.43 153.54-18.4 153.54-16.65L153.54-16.65Q153.54-16.2 153.44-15.48 153.34-14.75 153.19-14.3L153.19-14.3Q153.04-13.9 152.76-13.58 152.49-13.25 152.04-13.25L152.04-13.25Q151.84-13.25 151.29-13.4L151.29-13.4Q151.09-12.35 150.99-11.35 150.89-10.35 150.89-9.35L150.89-9.35Q150.89-7.45 151.46-5.98 152.04-4.5 153.74-4.15L153.74-4.15Q154.19-4.05 154.46-3.85 154.74-3.65 154.74-3L154.74-3Q154.74-2.45 154.46-1.6 154.19-0.75 153.41-0.08 152.64 0.6 151.19 0.6L151.19 0.6Q149.24 0.6 148.19-0.83 147.14-2.25 147.14-4.9L147.14-4.9Q145.79-2.45 143.71-0.9 141.64 0.65 138.84 0.65ZM140.44-4.55L140.44-4.55Q142.44-4.55 143.96-5.8 145.49-7.05 146.34-8.95L146.34-8.95Q146.89-10.15 147.19-11.58 147.49-13 147.59-14.4L147.59-14.4Q146.74-14.8 145.64-15.05 144.54-15.3 143.34-15.3L143.34-15.3Q140.29-15.3 138.31-13.5 136.34-11.7 136.34-9L136.34-9Q136.34-7 137.44-5.78 138.54-4.55 140.44-4.55ZM174.48 13.8L174.48 13.8Q172.98 13.8 172.13 12.98 171.28 12.15 171.28 10L171.28 10Q171.28 8.55 171.61 6.35 171.93 4.15 172.38 1.7L172.38 1.7Q172.73-0.25 173.06-2.4 173.38-4.55 173.61-6.63 173.83-8.7 173.83-10.35L173.83-10.35Q173.83-12.25 173.41-13.65 172.98-15.05 171.68-15.45L171.68-15.45Q171.18-15.65 170.78-15.9 170.38-16.15 170.38-16.7L170.38-16.7Q170.38-17.4 170.93-18.25 171.48-19.1 172.51-19.73 173.53-20.35 174.83-20.35L174.83-20.35Q176.53-20.35 177.18-19.18 177.83-18 177.83-16.1L177.83-16.1Q177.83-15.55 177.78-14.98 177.73-14.4 177.63-13.8L177.63-13.8Q179.08-16.6 181.46-18.53 183.83-20.45 186.83-20.45L186.83-20.45Q189.83-20.45 191.56-18.43 193.28-16.4 193.28-12.95L193.28-12.95Q193.28-10.4 192.48-7.98 191.68-5.55 190.23-3.6 188.78-1.65 186.76-0.5 184.73 0.65 182.23 0.65L182.23 0.65Q180.43 0.65 179.08 0.03 177.73-0.6 176.73-1.6L176.73-1.6Q176.53-0.3 176.36 1.55 176.18 3.4 176.18 5L176.18 5Q176.18 6.85 176.61 7.9 177.03 8.95 178.28 9.5L178.28 9.5Q178.83 9.75 178.83 10.3L178.83 10.3Q178.83 10.7 178.43 11.55 178.03 12.4 177.11 13.1 176.18 13.8 174.48 13.8ZM183.38-4.75L183.38-4.75Q186.23-4.75 187.78-6.55 189.33-8.35 189.33-10.7L189.33-10.7Q189.33-12.75 188.23-13.88 187.13-15 185.28-15L185.28-15Q183.38-15 181.93-13.88 180.48-12.75 179.46-10.95 178.43-9.15 177.78-7.1L177.78-7.1Q180.28-4.75 183.38-4.75ZM200.13 0.55L200.13 0.55Q199.33 0.55 198.86 0.28 198.38 0 198.53-0.65L198.53-0.65Q199.08-2.8 199.46-5.03 199.83-7.25 199.83-9.3L199.83-9.3Q199.83-11.95 199.51-13.18 199.18-14.4 198.63-14.88 198.08-15.35 197.28-15.6L197.28-15.6Q196.93-15.75 196.66-16 196.38-16.25 196.38-16.7L196.38-16.7Q196.38-17.4 196.93-18.25 197.48-19.1 198.48-19.73 199.48-20.35 200.78-20.35L200.78-20.35Q202.48-20.35 203.16-19.18 203.83-18 203.83-16.1L203.83-16.1Q204.73-18.1 206.06-19.28 207.38-20.45 209.38-20.45L209.38-20.45Q210.73-20.45 211.63-19.85 212.53-19.25 212.53-17.9L212.53-17.9Q212.53-16.55 211.66-15.38 210.78-14.2 209.88-14.2L209.88-14.2Q209.73-14.2 209.53-14.25 209.33-14.3 209.18-14.5L209.18-14.5Q208.53-15.3 207.58-15.3L207.58-15.3Q206.13-15.3 205.03-13.4 203.93-11.5 203.83-8.15L203.83-8.15Q203.88-6.9 203.91-5.6 203.93-4.3 203.93-3.7L203.93-3.7Q203.93-1.85 202.91-0.65 201.88 0.55 200.13 0.55ZM219.43 0.65L219.43 0.65Q216.43 0.65 214.6-1.23 212.78-3.1 212.78-6.6L212.78-6.6Q212.78-9.1 213.75-11.58 214.73-14.05 216.58-16.05 218.43-18.05 221.03-19.25 223.63-20.45 226.88-20.45L226.88-20.45Q229.88-20.45 232-19.43 234.13-18.4 234.13-16.65L234.13-16.65Q234.13-16.2 234.03-15.48 233.93-14.75 233.78-14.3L233.78-14.3Q233.63-13.9 233.35-13.58 233.08-13.25 232.63-13.25L232.63-13.25Q232.43-13.25 231.88-13.4L231.88-13.4Q231.68-12.35 231.58-11.35 231.48-10.35 231.48-9.35L231.48-9.35Q231.48-7.45 232.05-5.98 232.63-4.5 234.33-4.15L234.33-4.15Q234.78-4.05 235.05-3.85 235.33-3.65 235.33-3L235.33-3Q235.33-2.45 235.05-1.6 234.78-0.75 234-0.08 233.23 0.6 231.78 0.6L231.78 0.6Q229.83 0.6 228.78-0.83 227.73-2.25 227.73-4.9L227.73-4.9Q226.38-2.45 224.3-0.9 222.23 0.65 219.43 0.65ZM221.03-4.55L221.03-4.55Q223.03-4.55 224.55-5.8 226.08-7.05 226.93-8.95L226.93-8.95Q227.48-10.15 227.78-11.58 228.08-13 228.18-14.4L228.18-14.4Q227.33-14.8 226.23-15.05 225.13-15.3 223.93-15.3L223.93-15.3Q220.88-15.3 218.9-13.5 216.93-11.7 216.93-9L216.93-9Q216.93-7 218.03-5.78 219.13-4.55 221.03-4.55ZM240.33 0.55L240.33 0.55Q239.78 0.55 239.28 0.23 238.78-0.1 238.88-0.65L238.88-0.65Q239.63-4.65 240.15-8.78 240.68-12.9 240.68-17.1L240.68-17.1Q240.68-20.8 240.43-23.8 240.18-26.8 238.83-29.55L238.83-29.55Q238.58-30.1 238.43-30.5 238.28-30.9 238.28-31.25L238.28-31.25Q238.28-32.2 239.38-33.1 240.48-34 241.73-34L241.73-34Q243.53-34 244.18-31.8 244.83-29.6 244.83-25.3L244.83-25.3Q244.83-20.15 244.23-16.32 243.63-12.5 243.18-10.5L243.18-10.5 243.38-10.4Q244.38-12.85 245.93-15.13 247.48-17.4 249.5-18.9 251.53-20.4 253.93-20.4L253.93-20.4Q256.28-20.4 257.55-19 258.83-17.6 258.83-15.65L258.83-15.65Q258.83-13.35 257.18-11.55 255.53-9.75 252.88-8.55L252.88-8.55Q253.53-6.85 254.73-5.88 255.93-4.9 257.78-4.9L257.78-4.9Q258.38-4.9 258.78-5L258.78-5Q259.43-5.15 259.43-3.75L259.43-3.75Q259.43-2.95 259.13-1.95 258.83-0.95 257.95-0.23 257.08 0.5 255.33 0.5L255.33 0.5Q252.98 0.5 251.5-0.88 250.03-2.25 249.2-4.28 248.38-6.3 247.93-8.3L247.93-8.3Q247.53-10.15 249.18-10.25L249.18-10.25Q250.93-10.45 252.13-11.3 253.33-12.15 253.33-13.55L253.33-13.55Q253.33-15.15 251.78-15.15L251.78-15.15Q250.78-15.15 249.75-14.43 248.73-13.7 247.85-12.7 246.98-11.7 246.43-10.75L246.43-10.75Q245.68-9.45 245.13-8.2 244.58-6.95 244.23-5.7L244.23-5.7 244.23-3.7Q244.23-1.85 243.15-0.65 242.08 0.55 240.33 0.55ZM269.37 0.65L269.37 0.65Q266.37 0.65 264.55-1.23 262.72-3.1 262.72-6.6L262.72-6.6Q262.72-9.1 263.7-11.58 264.67-14.05 266.52-16.05 268.37-18.05 270.97-19.25 273.57-20.45 276.82-20.45L276.82-20.45Q279.82-20.45 281.95-19.43 284.07-18.4 284.07-16.65L284.07-16.65Q284.07-16.2 283.97-15.48 283.87-14.75 283.72-14.3L283.72-14.3Q283.57-13.9 283.3-13.58 283.02-13.25 282.57-13.25L282.57-13.25Q282.37-13.25 281.82-13.4L281.82-13.4Q281.62-12.35 281.52-11.35 281.42-10.35 281.42-9.35L281.42-9.35Q281.42-7.45 282-5.98 282.57-4.5 284.27-4.15L284.27-4.15Q284.72-4.05 285-3.85 285.27-3.65 285.27-3L285.27-3Q285.27-2.45 285-1.6 284.72-0.75 283.95-0.08 283.17 0.6 281.72 0.6L281.72 0.6Q279.77 0.6 278.72-0.83 277.67-2.25 277.67-4.9L277.67-4.9Q276.32-2.45 274.25-0.9 272.17 0.65 269.37 0.65ZM270.97-4.55L270.97-4.55Q272.97-4.55 274.5-5.8 276.02-7.05 276.87-8.95L276.87-8.95Q277.42-10.15 277.72-11.58 278.02-13 278.12-14.4L278.12-14.4Q277.27-14.8 276.17-15.05 275.07-15.3 273.87-15.3L273.87-15.3Q270.82-15.3 268.85-13.5 266.87-11.7 266.87-9L266.87-9Q266.87-7 267.97-5.78 269.07-4.55 270.97-4.55ZM294.97 0.65L294.97 0.65Q293.12 0.65 291.52 0.1 289.92-0.45 288.92-1.45 287.92-2.45 287.92-3.85L287.92-3.85Q287.92-4.6 288.3-5.28 288.67-5.95 289.52-5.95L289.52-5.95Q289.97-5.95 290.47-5.7L290.47-5.7Q291.37-5.2 292.77-4.78 294.17-4.35 295.72-4.35L295.72-4.35Q297.47-4.35 298.82-4.85 300.17-5.35 300.17-6.25L300.17-6.25Q300.17-6.95 299.15-7.25 298.12-7.55 295.72-7.9L295.72-7.9Q294.07-8.2 292.52-8.6 290.97-9 289.97-9.98 288.97-10.95 288.97-12.85L288.97-12.85Q288.97-14.7 290-16.43 291.02-18.15 293.07-19.3 295.12-20.45 298.07-20.45L298.07-20.45Q299.62-20.45 301.07-20.1 302.52-19.75 303.47-19.05 304.42-18.35 304.42-17.3L304.42-17.3Q304.42-16.4 303.8-15.65 303.17-14.9 302.35-14.43 301.52-13.95 300.97-13.95L300.97-13.95Q300.57-13.95 300.02-14.5L300.02-14.5Q299.17-15.2 298.15-15.48 297.12-15.75 296.12-15.75L296.12-15.75Q294.62-15.75 293.7-15.3 292.77-14.85 292.77-14.15L292.77-14.15Q292.77-13.5 293.55-13.1 294.32-12.7 295.47-12.53 296.62-12.35 297.67-12.2L297.67-12.2Q300.57-11.8 302.27-10.83 303.97-9.85 303.97-7.4L303.97-7.4Q303.97-5.5 302.9-3.63 301.82-1.75 299.8-0.55 297.77 0.65 294.97 0.65ZM310.32 0.55L310.32 0.55Q309.62 0.55 309.12 0.23 308.62-0.1 308.72-0.65L308.72-0.65Q309.47-4.65 309.99-8.78 310.52-12.9 310.52-17.1L310.52-17.1Q310.52-20.8 310.27-23.8 310.02-26.8 308.67-29.55L308.67-29.55Q308.42-30.1 308.27-30.5 308.12-30.9 308.12-31.25L308.12-31.25Q308.12-32.2 309.24-33.1 310.37-34 311.62-34L311.62-34Q313.37-34 314.02-31.8 314.67-29.6 314.67-25.3L314.67-25.3Q314.67-20.15 314.07-16.32 313.47-12.5 313.02-10.5L313.02-10.5 313.22-10.4Q314.22-13.05 315.64-15.35 317.07-17.65 318.97-19.05 320.87-20.45 323.37-20.45L323.37-20.45Q326.02-20.45 327.39-18.85 328.77-17.25 328.77-14.9L328.77-14.9Q328.77-13.9 328.57-12.98 328.37-12.05 328.12-11.2L328.12-11.2Q327.87-10.4 327.67-9.58 327.47-8.75 327.47-7.9L327.47-7.9Q327.47-6.35 328.22-5.38 328.97-4.4 330.22-4L330.22-4Q330.57-3.9 330.74-3.73 330.92-3.55 330.92-3.1L330.92-3.1Q330.92-2.65 330.62-1.8 330.32-0.95 329.52-0.23 328.72 0.5 327.17 0.5L327.17 0.5Q325.17 0.5 324.07-0.93 322.97-2.35 322.97-4.6L322.97-4.6Q322.97-5.7 323.19-6.85 323.42-8 323.72-9.05L323.72-9.05Q323.97-10.1 324.17-11.03 324.37-11.95 324.37-12.6L324.37-12.6Q324.37-14.9 321.97-14.9L321.97-14.9Q319.97-14.9 318.44-13.48 316.92-12.05 315.84-9.88 314.77-7.7 314.07-5.4L314.07-5.4 314.07-3.7Q314.07-1.85 312.99-0.65 311.92 0.55 310.32 0.55ZM350.41 0.55L350.41 0.55Q348.61 0.55 348.81-0.65L348.81-0.65Q349.36-2.8 349.74-5.03 350.11-7.25 350.11-9.3L350.11-9.3Q350.11-11.95 349.79-13.18 349.46-14.4 348.91-14.88 348.36-15.35 347.56-15.6L347.56-15.6Q347.21-15.75 346.94-16 346.66-16.25 346.66-16.7L346.66-16.7Q346.66-17.4 347.21-18.25 347.76-19.1 348.79-19.73 349.81-20.35 351.11-20.35L351.11-20.35Q352.81-20.35 353.46-19.18 354.11-18 354.11-16.1L354.11-16.1Q354.11-14.85 353.86-13.3 353.61-11.75 353.36-10.5L353.36-10.5 353.51-10.45Q354.51-13.1 355.94-15.38 357.36-17.65 359.26-19.05 361.16-20.45 363.66-20.45L363.66-20.45Q366.31-20.45 367.71-18.85 369.11-17.25 369.11-14.85L369.11-14.85Q369.11-13.85 368.89-12.95 368.66-12.05 368.41-11.2L368.41-11.2Q368.16-10.4 367.99-9.55 367.81-8.7 367.81-7.85L367.81-7.85Q367.81-5 370.51-4L370.51-4Q371.21-3.7 371.21-3.1L371.21-3.1Q371.21-2.65 370.91-1.8 370.61-0.95 369.81-0.23 369.01 0.5 367.46 0.5L367.46 0.5Q365.46 0.5 364.36-0.93 363.26-2.35 363.26-4.55L363.26-4.55Q363.26-5.8 363.54-7.08 363.81-8.35 364.11-9.45L364.11-9.45Q364.31-10.3 364.49-11.13 364.66-11.95 364.66-12.6L364.66-12.6Q364.66-14.9 362.26-14.9L362.26-14.9Q360.21-14.9 358.66-13.38 357.11-11.85 356.01-9.55 354.91-7.25 354.21-4.9L354.21-4.9 354.21-3.7Q354.21-1.85 353.19-0.65 352.16 0.55 350.41 0.55ZM380.61 0.65L380.61 0.65Q377.61 0.65 375.79-1.23 373.96-3.1 373.96-6.6L373.96-6.6Q373.96-9.1 374.94-11.58 375.91-14.05 377.76-16.05 379.61-18.05 382.21-19.25 384.81-20.45 388.06-20.45L388.06-20.45Q391.06-20.45 393.19-19.43 395.31-18.4 395.31-16.65L395.31-16.65Q395.31-16.2 395.21-15.48 395.11-14.75 394.96-14.3L394.96-14.3Q394.81-13.9 394.54-13.58 394.26-13.25 393.81-13.25L393.81-13.25Q393.61-13.25 393.06-13.4L393.06-13.4Q392.86-12.35 392.76-11.35 392.66-10.35 392.66-9.35L392.66-9.35Q392.66-7.45 393.24-5.98 393.81-4.5 395.51-4.15L395.51-4.15Q395.96-4.05 396.24-3.85 396.51-3.65 396.51-3L396.51-3Q396.51-2.45 396.24-1.6 395.96-0.75 395.19-0.08 394.41 0.6 392.96 0.6L392.96 0.6Q391.01 0.6 389.96-0.83 388.91-2.25 388.91-4.9L388.91-4.9Q387.56-2.45 385.49-0.9 383.41 0.65 380.61 0.65ZM382.21-4.55L382.21-4.55Q384.21-4.55 385.74-5.8 387.26-7.05 388.11-8.95L388.11-8.95Q388.66-10.15 388.96-11.58 389.26-13 389.36-14.4L389.36-14.4Q388.51-14.8 387.41-15.05 386.31-15.3 385.11-15.3L385.11-15.3Q382.06-15.3 380.09-13.5 378.11-11.7 378.11-9L378.11-9Q378.11-7 379.21-5.78 380.31-4.55 382.21-4.55ZM401.01 13.8L401.01 13.8Q398.96 13.8 397.48 12.7 396.01 11.6 396.01 9.75L396.01 9.75Q396.01 8.3 396.88 7.28 397.76 6.25 399.06 6.25L399.06 6.25Q399.66 6.25 399.91 6.45 400.16 6.65 400.31 6.9L400.31 6.9Q400.71 7.55 401.23 8.03 401.76 8.5 402.66 8.5L402.66 8.5Q403.86 8.5 404.98 7.65 406.11 6.8 407.06 5.7L407.06 5.7Q407.91 4.75 409.11 2.98 410.31 1.2 411.51-1.05L411.51-1.05Q410.41-0.1 409.46 0.33 408.51 0.75 407.66 0.75L407.66 0.75Q406.61 0.75 405.61-0.03 404.61-0.8 404.36-2.95L404.36-2.95Q404.21-4.6 403.78-6.6 403.36-8.6 402.73-10.48 402.11-12.35 401.21-13.65L401.21-13.65Q400.86-14.25 400.41-14.55 399.96-14.85 399.11-14.95L399.11-14.95Q398.51-15 398.33-15.3 398.16-15.6 398.16-16.25L398.16-16.25Q398.16-18.05 399.16-19.15 400.16-20.25 401.86-20.25L401.86-20.25Q403.91-20.25 404.81-18.68 405.71-17.1 406.36-14.85L406.36-14.85Q406.61-13.95 406.88-12.48 407.16-11 407.38-9.3 407.61-7.6 407.71-6.05L407.71-6.05Q407.76-4.95 408.96-4.95L408.96-4.95Q410.56-4.95 412.01-5.95 413.46-6.95 414.38-8.55 415.31-10.15 415.31-11.9L415.31-11.9Q415.31-12.9 415.06-13.7 414.81-14.5 414.21-15.1L414.21-15.1Q413.71-15.7 413.41-16.07 413.11-16.45 413.11-16.95L413.11-16.95Q413.11-17.8 413.91-18.55 414.71-19.3 415.83-19.8 416.96-20.3 417.81-20.3L417.81-20.3Q419.31-20.3 419.81-18.88 420.31-17.45 420.06-15.75L420.06-15.75Q419.76-13.4 418.86-10.2 417.96-7 416.53-3.5 415.11 0 413.28 3.28 411.46 6.55 409.41 9L409.41 9Q407.66 11.15 405.51 12.48 403.36 13.8 401.01 13.8ZM429.71 0.65L429.71 0.65Q426.71 0.65 424.88-1.23 423.06-3.1 423.06-6.6L423.06-6.6Q423.06-9.1 424.03-11.58 425.01-14.05 426.86-16.05 428.71-18.05 431.31-19.25 433.91-20.45 437.16-20.45L437.16-20.45Q440.16-20.45 442.28-19.43 444.41-18.4 444.41-16.65L444.41-16.65Q444.41-16.2 444.31-15.48 444.21-14.75 444.06-14.3L444.06-14.3Q443.91-13.9 443.63-13.58 443.36-13.25 442.91-13.25L442.91-13.25Q442.71-13.25 442.16-13.4L442.16-13.4Q441.96-12.35 441.86-11.35 441.76-10.35 441.76-9.35L441.76-9.35Q441.76-7.45 442.33-5.98 442.91-4.5 444.61-4.15L444.61-4.15Q445.06-4.05 445.33-3.85 445.61-3.65 445.61-3L445.61-3Q445.61-2.45 445.33-1.6 445.06-0.75 444.28-0.08 443.51 0.6 442.06 0.6L442.06 0.6Q440.11 0.6 439.06-0.83 438.01-2.25 438.01-4.9L438.01-4.9Q436.66-2.45 434.58-0.9 432.51 0.65 429.71 0.65ZM431.31-4.55L431.31-4.55Q433.31-4.55 434.83-5.8 436.36-7.05 437.21-8.95L437.21-8.95Q437.76-10.15 438.06-11.58 438.36-13 438.46-14.4L438.46-14.4Q437.61-14.8 436.51-15.05 435.41-15.3 434.21-15.3L434.21-15.3Q431.16-15.3 429.18-13.5 427.21-11.7 427.21-9L427.21-9Q427.21-7 428.31-5.78 429.41-4.55 431.31-4.55ZM450.6 0.55L450.6 0.55Q450.05 0.55 449.55 0.23 449.05-0.1 449.15-0.65L449.15-0.65Q449.9-4.65 450.43-8.78 450.95-12.9 450.95-17.1L450.95-17.1Q450.95-20.8 450.7-23.8 450.45-26.8 449.1-29.55L449.1-29.55Q448.85-30.1 448.7-30.5 448.55-30.9 448.55-31.25L448.55-31.25Q448.55-32.2 449.65-33.1 450.75-34 452-34L452-34Q453.8-34 454.45-31.8 455.1-29.6 455.1-25.3L455.1-25.3Q455.1-20.15 454.5-16.32 453.9-12.5 453.45-10.5L453.45-10.5 453.65-10.4Q454.65-12.85 456.2-15.13 457.75-17.4 459.78-18.9 461.8-20.4 464.2-20.4L464.2-20.4Q466.55-20.4 467.83-19 469.1-17.6 469.1-15.65L469.1-15.65Q469.1-13.35 467.45-11.55 465.8-9.75 463.15-8.55L463.15-8.55Q463.8-6.85 465-5.88 466.2-4.9 468.05-4.9L468.05-4.9Q468.65-4.9 469.05-5L469.05-5Q469.7-5.15 469.7-3.75L469.7-3.75Q469.7-2.95 469.4-1.95 469.1-0.95 468.23-0.23 467.35 0.5 465.6 0.5L465.6 0.5Q463.25 0.5 461.78-0.88 460.3-2.25 459.48-4.28 458.65-6.3 458.2-8.3L458.2-8.3Q457.8-10.15 459.45-10.25L459.45-10.25Q461.2-10.45 462.4-11.3 463.6-12.15 463.6-13.55L463.6-13.55Q463.6-15.15 462.05-15.15L462.05-15.15Q461.05-15.15 460.03-14.43 459-13.7 458.13-12.7 457.25-11.7 456.7-10.75L456.7-10.75Q455.95-9.45 455.4-8.2 454.85-6.95 454.5-5.7L454.5-5.7 454.5-3.7Q454.5-1.85 453.43-0.65 452.35 0.55 450.6 0.55Z" opacity="1" transform="matrix(1,0,0,1,0,0)" fill="#8eaec4" class="slogan-text-1" data-fill-palette-color="secondary" id="text-1"></path></svg></g></svg></g></svg></g></svg></g><g transform="matrix(1,0,0,1,0,6.6642425777787935)"><svg viewBox="0 0 156.10338203743058 156.1014108896663" height="156.1014108896663" width="156.10338203743058"><g><svg xmlns="http://www.w3.org/2000/svg" xmlns:xlink="http://www.w3.org/1999/xlink" version="1.0" x="0" y="0" viewBox="9.999989811685603 10 80.0010101883144 80" enable-background="new 0 0 100 100" xml:space="preserve" height="156.1014108896663" width="156.10338203743058" class="icon-icon-0" data-fill-palette-color="accent" id="icon-0"><path fill="none" stroke="#283132" stroke-linecap="round" stroke-linejoin="round" stroke-miterlimit="10" d="M25 69.998L22.499 90z"></path><path fill="none" stroke="#283132" stroke-linecap="round" stroke-linejoin="round" stroke-miterlimit="10" d="M47.5 49.169C45.943 50.096 44.262 50.623 42.501 50.623 40.252 50.623 38.13 49.79 36.241 48.329V48.877A6.63 6.63 0 0 1 34.288 53.594 6.7 6.7 0 0 1 32.121 55.039L13.366 62.812A11.45 11.45 0 0 0 10 70.936V90H47.5z"></path><path fill="none" stroke="#283132" stroke-linecap="round" stroke-linejoin="round" stroke-miterlimit="10" d="M47.5 10.912A14.2 14.2 0 0 0 42.501 10C35.239 10 29.262 15.446 28.397 22.478V26.537C26.557 27.191 25.234 28.928 25.234 30.991 25.234 35.029 27.284 38.302 29.84 38.415 32.19 45.657 36.971 50.624 42.5 50.624 44.261 50.624 45.942 50.118 47.499 49.195z"></path><path fill="none" stroke="#283132" stroke-linecap="round" stroke-linejoin="round" stroke-miterlimit="10" d="M77.272 53.51L74.619 50.858z"></path><circle fill="none" stroke="#283132" stroke-linecap="round" stroke-linejoin="round" stroke-miterlimit="10" cx="77.499" cy="77.498" r="5.7"></circle><path fill="none" stroke="#283132" stroke-linecap="round" stroke-linejoin="round" stroke-miterlimit="10" d="M81.088 86.158C82.554 85.553 84.205 86.156 84.979 87.496A12.5 12.5 0 0 0 87.496 84.976 3.12 3.12 0 0 1 86.161 81.083 3.114 3.114 0 0 1 89.856 79.278C89.94 78.696 89.999 78.104 89.999 77.497 89.999 76.892 89.94 76.302 89.856 75.72A3.12 3.12 0 0 1 86.161 73.911 3.115 3.115 0 0 1 87.496 70.02 12.5 12.5 0 0 0 84.979 67.499C84.206 68.843 82.552 69.446 81.086 68.839A3.115 3.115 0 0 1 79.279 65.14 13 13 0 0 0 77.5 65C76.892 65 76.303 65.059 75.719 65.141A3.12 3.12 0 0 1 73.912 68.84 3.114 3.114 0 0 1 70.022 67.504 12.6 12.6 0 0 0 67.503 70.022 3.115 3.115 0 0 1 68.84 73.913 3.12 3.12 0 0 1 65.142 75.722 12 12 0 0 0 65 77.499C65 78.106 65.057 78.698 65.142 79.28A3.12 3.12 0 0 1 68.84 81.089 3.12 3.12 0 0 1 67.503 84.982 12.6 12.6 0 0 0 70.022 87.498 3.12 3.12 0 0 1 73.912 86.16 3.12 3.12 0 0 1 75.719 89.861C76.303 89.941 76.892 90 77.5 90 78.106 90 78.697 89.941 79.279 89.859A3.124 3.124 0 0 1 81.088 86.158"></path><path fill="none" stroke="#283132" stroke-linecap="round" stroke-linejoin="round" stroke-miterlimit="10" d="M86.59 36.65V33.346z"></path><path fill="none" stroke="#283132" stroke-linecap="round" stroke-linejoin="round" stroke-miterlimit="10" d="M78.777 10.357A1.22 1.22 0 0 0 77.049 10.361H77.049L58.892 28.513 55.003 35 61.485 31.111 79.644 12.952H79.644A1.22 1.22 0 0 0 79.644 11.225z"></path><path fill="none" stroke="#283132" stroke-linecap="round" stroke-linejoin="round" stroke-miterlimit="10" d="M75.32 12.086L77.915 14.681z"></path><path fill="none" stroke="#283132" stroke-linecap="round" stroke-linejoin="round" stroke-miterlimit="10" d="M73.591 13.816L76.186 16.411z"></path><path fill="none" stroke="#283132" stroke-linecap="round" stroke-linejoin="round" stroke-miterlimit="10" d="M58.892 28.516L61.486 31.111z"></path><path fill="none" stroke="#283132" stroke-linecap="round" stroke-linejoin="round" stroke-miterlimit="10" d="M83.902 56.6L71.527 44.229A3.75 3.75 0 0 0 66.223 44.229H66.223L47.5 62.953V78.531L54.734 85.769A3.745 3.745 0 0 0 60.037 85.769L66.565 79.242A3.05 3.05 0 0 0 65.142 79.279 12 12 0 0 1 65 77.498C65 76.893 65.057 76.303 65.142 75.721A3.12 3.12 0 0 0 68.84 73.912 3.115 3.115 0 0 0 67.503 70.021 12.6 12.6 0 0 1 70.022 67.503 3.114 3.114 0 0 0 73.912 68.839 3.12 3.12 0 0 0 75.719 65.14 13 13 0 0 1 77.5 65C78.104 65 78.695 65.059 79.279 65.141 79.149 65.62 79.149 66.106 79.241 66.567L83.9 61.907H83.902A3.755 3.755 0 0 0 83.902 56.6"></path><path fill="none" stroke="#283132" stroke-linecap="round" stroke-linejoin="round" stroke-miterlimit="10" d="M65.34 45.115L47.5 62.953V69.701L61.804 84.006 66.569 79.242A3.06 3.06 0 0 0 65.143 79.279 12 12 0 0 1 65.001 77.498C65.001 76.893 65.058 76.303 65.143 75.721A3.12 3.12 0 0 0 68.841 73.912 3.115 3.115 0 0 0 67.504 70.021 12.6 12.6 0 0 1 70.023 67.503 3.114 3.114 0 0 0 73.913 68.839 3.12 3.12 0 0 0 75.72 65.14C76.303 65.059 76.892 65 77.5 65 78.104 65 78.695 65.059 79.279 65.141A3.1 3.1 0 0 0 79.241 66.571L83.018 62.792z"></path><path fill="none" stroke="#283132" stroke-linecap="round" stroke-linejoin="round" stroke-miterlimit="10" d="M86.692 16.817H75.779L61.485 31.111 55.003 35 58.892 28.514 70.589 16.818H47.5V53.185H57.271L66.224 44.23H66.224A3.75 3.75 0 0 1 71.528 44.23L80.482 53.185H86.693A3.31 3.31 0 0 0 90.001 49.877V20.125A3.31 3.31 0 0 0 86.692 16.817"></path><path fill="none" stroke="#283132" stroke-linecap="round" stroke-linejoin="round" stroke-miterlimit="10" d="M73.505 19.09L61.485 31.111 55.003 35 58.892 28.514 68.317 19.091H47.5V50.911H59.544L66.224 44.23H66.224A3.75 3.75 0 0 1 71.528 44.23L78.209 50.911H83.182V19.09z"></path></svg></g></svg></g></svg></g><defs></defs></svg><rect width="395.52" height="117.71936741862936" fill="none" stroke="none" visibility="hidden"></rect></g></svg></g></svg>